#!OML:ASF G:\JayActor3\Patient Classification 1\Patient 1\Session 5\male.ASF
:FULLY-SPECIFIED
:DEGREES
433
root -25.6879 15.8603 -5.31605 3.76839 88.3696 -12.1336
lowerback 33.8112 -1.17398 1.5316
upperback 9.42669 -0.172719 -2.48337
thorax -6.88133 0.384434 -3.41492
lowerneck 0.381659 -0.722262 3.40113
upperneck -22.2353 0.332753 2.12851
head -6.84886 0.032977 0.0547546
rclavicle -3.97569e-015 -2.48481e-014
rhumerus -29.8973 4.65546 -89.5657
rradius 42.9187
rwrist -3.05408
rhand -19.7302 -10.775
rfingers 7.12502
rthumb 6.60032 -40.6522
lclavicle -3.97569e-015 -2.48481e-014
lhumerus -29.4414 2.23891 80.5253
lradius 36.9917
lwrist 25.1062
lhand -20.326 13.5479
lfingers 7.12502
lthumb 6.02506 43.4422
rfemur -43.1484 -1.79905 18.0501
rtibia 78.797
rfoot 21.5716 -7.06725
rtoes 13.786
lfemur -70.694 12.4058 -31.6258
ltibia 66.0954
lfoot 13.9991 -2.13744
ltoes -32.4548
434
root -25.5521 15.8678 -5.33074 0.373194 88.4183 -15.6378
lowerback 33.7126 -1.13992 1.50547
upperback 9.38649 -0.141774 -2.41373
thorax -6.88509 0.393657 -3.3382
lowerneck 0.374394 -0.731818 3.42788
upperneck -22.1911 0.312254 2.10385
head -6.83336 0.0224059 0.0436073
rclavicle -2.62396e-014 -1.70955e-014
rhumerus -29.9192 4.58021 -89.5029
rradius 42.8312
rwrist -2.98707
rhand -19.6518 -10.807
rfingers 7.12502
rthumb 6.67593 -40.6817
lclavicle -2.62396e-014 -1.70955e-014
lhumerus -29.4091 2.03171 80.616
lradius 37.1358
lwrist 25.155
lhand -20.2084 13.4113
lfingers 7.12502
lthumb 6.13858 43.3023
rfemur -42.9625 -1.57589 17.9197
rtibia 78.696
rfoot 22.885 -7.93619
rtoes 13.9511
lfemur -70.4903 12.0758 -31.3087
ltibia 66.6194
lfoot 13.4454 -1.92602
ltoes -32.6835
435
root -25.4168 15.8755 -5.34508 -3.2263 88.4644 -19.342
lowerback 33.623 -1.10688 1.4899
upperback 9.34186 -0.109181 -2.34906
thorax -6.89708 0.40364 -3.27302
lowerneck 0.377174 -0.752318 3.44399
upperneck -22.1683 0.282739 2.10482
head -6.82667 0.00623907 0.0430496
rclavicle -1.90833e-014 -3.73715e-014
rhumerus -29.963 4.48023 -89.4451
rradius 42.7721
rwrist -2.92959
rhand -19.6219 -10.8417
rfingers 7.12502
rthumb 6.70486 -40.7155
lclavicle -1.90833e-014 -3.73715e-014
lhumerus -29.3971 1.81198 80.7016
lradius 37.2913
lwrist 25.1791
lhand -20.0426 13.4325
lfingers 7.12502
lthumb 6.29871 43.3189
rfemur -42.843 -1.36663 17.7847
rtibia 78.67
rfoot 24.2486 -8.74658
rtoes 13.8346
lfemur -70.268 11.7524 -30.9845
ltibia 67.1101
lfoot 12.909 -1.75085
ltoes -32.8529
436
root -25.2821 15.8841 -5.35956 -6.78522 88.5029 -22.9868
lowerback 33.555 -1.07636 1.48354
upperback 9.30051 -0.0760416 -2.29251
thorax -6.91374 0.414585 -3.22163
lowerneck 0.381038 -0.780174 3.45718
upperneck -22.1648 0.246133 2.11468
head -6.82656 -0.0137075 0.0462366
rclavicle 6.36111e-015 1.8487e-014
rhumerus -30.0167 4.36464 -89.3922
rradius 42.7362
rwrist -2.88308
rhand -19.6416 -10.877
rfingers 7.12502
rthumb 6.68583 -40.7514
lclavicle 6.36111e-015 1.8487e-014
lhumerus -29.3932 1.58149 80.782
lradius 37.4533
lwrist 25.1975
lhand -19.8835 13.5531
lfingers 7.12502
lthumb 6.4523 43.4348
rfemur -42.7909 -1.17745 17.6418
rtibia 78.7468
rfoot 25.6194 -9.47049
rtoes 13.4396
lfemur -70.007 11.4456 -30.6668
ltibia 67.5664
lfoot 12.3822 -1.59304
ltoes -32.9884
437
root -25.1495 15.8932 -5.37408 -10.4308 88.5452 -26.7037
lowerback 33.511 -1.05607 1.49466
upperback 9.26411 -0.0489056 -2.24355
thorax -6.93459 0.423549 -3.18557
lowerneck 0.36316 -0.806668 3.46207
upperneck -22.1604 0.211434 2.12854
head -6.82235 -0.0317811 0.0519443
rclavicle 3.18055e-015 6.75868e-015
rhumerus -30.0693 4.23848 -89.3459
rradius 42.7171
rwrist -2.83682
rhand -19.7108 -10.9054
rfingers 7.12502
rthumb 6.61896 -40.7819
lclavicle 3.18055e-015 6.75868e-015
lhumerus -29.3856 1.36185 80.8529
lradius 37.615
lwrist 25.1956
lhand -19.745 13.7901
lfingers 7.12502
lthumb 6.58596 43.6677
rfemur -42.8327 -1.02647 17.5009
rtibia 78.9573
rfoot 27.0256 -10.0234
rtoes 12.6768
lfemur -69.7198 11.1526 -30.3668
ltibia 67.9916
lfoot 11.8724 -1.44123
ltoes -33.1015
438
root -25.0192 15.9025 -5.38871 -14.185 88.5856 -30.5145
lowerback 33.4909 -1.04497 1.5235
upperback 9.23453 -0.0261532 -2.20106
thorax -6.95743 0.43135 -3.16434
lowerneck 0.342141 -0.835578 3.46646
upperneck -22.1737 0.173096 2.13446
head -6.82331 -0.0507588 0.0553384
rclavicle 5.1684e-015 -1.43125e-014
rhumerus -30.1122 4.1129 -89.3055
rradius 42.7096
rwrist -2.78982
rhand -19.8189 -10.9276
rfingers 7.12502
rthumb 6.51464 -40.8074
lclavicle 5.1684e-015 -1.43125e-014
lhumerus -29.3706 1.17082 80.9089
lradius 37.7514
lwrist 25.1728
lhand -19.6351 13.9738
lfingers 7.12502
lthumb 6.69213 43.8481
rfemur -42.9813 -0.918277 17.368
rtibia 79.3222
rfoot 28.4198 -10.4068
rtoes 11.7595
lfemur -69.4127 10.8812 -30.0907
ltibia 68.3908
lfoot 11.389 -1.28328
ltoes -33.2126
439
root -24.8911 15.9122 -5.40349 -17.8116 88.6182 -34.1821
lowerback 33.494 -1.04273 1.5627
upperback 9.21273 -0.00984235 -2.16648
thorax -6.98108 0.437043 -3.15481
lowerneck 0.312067 -0.862072 3.46961
upperneck -22.1949 0.136059 2.12803
head -6.82523 -0.0677667 0.0548292
rclavicle -1.88845e-014 -1.33186e-014
rhumerus -30.138 4.00427 -89.2753
rradius 42.7088
rwrist -2.74257
rhand -19.9379 -10.9484
rfingers 7.12502
rthumb 6.39973 -40.8317
lclavicle -1.88845e-014 -1.33186e-014
lhumerus -29.3468 1.02095 80.947
lradius 37.8479
lwrist 25.1395
lhand -19.589 14.0279
lfingers 7.12502
lthumb 6.73656 43.9007
rfemur -43.2374 -0.85484 17.2423
rtibia 79.8497
rfoot 29.7783 -10.5777
rtoes 10.7109
lfemur -69.0879 10.6469 -29.8501
ltibia 68.7677
lfoot 10.9333 -1.12337
ltoes -33.3461
